# xmcd
# Track frame offsets:
# 150
# 17716
# 32001
# 49122
# 65325
# 80851
# 97824
# 112245
# 124736
# 139212
# 153615
# 168992
# 184178
# 197773
# 214806
#
# Disc length: 3104 seconds
# Revision: 0
# Processed by: cddbd v1.5.1PL0 Copyright (c) Steve Scherf et al.
# Submitted via: VisiTrax 2.9.10.228 - For more info visit www.synapsa.com
#
DISCID=d70c1e0f
DTITLE=Gilley, Mickey - CB90077
DYEAR=1900
DGENRE=Karaoke
TTITLE0=Stand By Me
TTITLE1=Room Full Of Roses, A
TTITLE2=Headache Tomorrow Or A Heartache
TTITLE3=Fool For Your Love
TTITLE4=You've Really Got A Hold On Me
TTITLE5=Talk To Me
TTITLE6=Don't The Girls All Get Prettier At Closing
TTITLE7=That's All That Matters To Me
TTITLE8=I Overlooked An Orchid
TTITLE9=True Love Ways
TTITLE10=Tears Of The Lonely
TTITLE11=You Don't Know Me
TTITLE12=City Lights
TTITLE13=Lonely Nights
TTITLE14=Put Your Dreams Away
EXTD=
EXTT0=
EXTT1=
EXTT2=
EXTT3=
EXTT4=
EXTT5=
EXTT6=
EXTT7=
EXTT8=
EXTT9=
EXTT10=
EXTT11=
EXTT12=
EXTT13=
EXTT14=
PLAYORDER=
